<?xml version="1.0" standalone="no"?>
<!DOCTYPE svg PUBLIC "-//W3C//DTD SVG 20010904//EN"
 "http://www.w3.org/TR/2001/REC-SVG-20010904/DTD/svg10.dtd">
<svg version="1.0" xmlns="http://www.w3.org/2000/svg"
 width="300.000000pt" height="138.000000pt" viewBox="0 0 300.000000 138.000000"
 preserveAspectRatio="xMidYMid meet">
<metadata>
Created by potrace 1.10, written by Peter Selinger 2001-2011
</metadata>
<g transform="translate(0.000000,138.000000) scale(0.050000,-0.050000)"
fill="#000000" stroke="none">
<path d="M2580 2397 c-214 -66 -417 -127 -450 -136 -65 -18 -442 -131 -700
-210 -253 -77 -485 -146 -680 -201 -304 -85 -380 -117 -380 -161 0 -37 19 -39
445 -44 l445 -6 0 -109 0 -110 -67 0 c-210 0 -273 -130 -273 -562 0 -390 14
-446 133 -520 l77 -48 790 0 790 0 75 47 c133 82 135 89 135 519 0 219 -9 403
-20 424 -37 70 -141 125 -257 138 l-113 12 -6 105 -6 105 440 0 440 0 -24 -75
c-17 -54 -21 -222 -14 -608 l10 -534 50 -53 c101 -108 112 -110 750 -110 638
0 649 2 750 110 l50 53 6 552 c3 330 -2 574 -14 608 l-20 57 340 0 c284 0 341
5 351 30 16 42 -23 84 -89 96 -30 6 -252 70 -494 143 -242 74 -469 142 -505
152 -137 40 -200 58 -335 100 -77 23 -169 51 -205 61 -36 10 -94 26 -130 36
-36 11 -200 61 -365 112 -552 172 -470 169 -930 27z m492 -15 c32 -11 139 -43
238 -72 99 -30 203 -61 230 -70 76 -25 460 -139 550 -163 44 -12 116 -34 160
-48 123 -40 400 -122 610 -181 105 -29 204 -60 220 -70 17 -9 -911 -17 -2080
-16 -2215 0 -2170 -2 -1880 78 50 14 113 32 140 40 28 9 129 39 225 68 241 71
463 137 745 223 132 40 267 81 300 90 33 9 146 43 250 76 222 69 217 68 292
45z m-672 -782 c11 -16 20 -64 20 -105 l0 -76 -525 6 -525 5 -6 64 c-14 141
16 149 548 142 391 -5 473 -11 488 -36z m1947 -1 l53 -42 0 -532 c0 -687 47
-625 -470 -625 -508 0 -460 -64 -460 614 l0 529 56 49 c81 70 734 75 821 7z
m460 0 l53 -42 0 -545 0 -545 -49 -46 c-40 -38 -79 -49 -200 -57 -149 -9 -177
2 -126 53 32 32 47 1045 18 1152 l-20 71 136 0 c107 0 147 -9 188 -41z m-3547
-445 c0 -298 33 -314 641 -314 454 0 485 5 574 86 40 37 45 60 45 217 l0 177
65 -1 c36 0 97 -16 135 -35 l70 -34 5 -385 6 -385 -66 -40 c-71 -44 -1472 -63
-1581 -22 -110 42 -114 58 -114 422 0 365 12 421 97 455 118 46 123 40 123
-141z m1160 17 c0 -216 13 -211 -534 -211 -537 0 -526 -5 -526 220 l0 140 530
0 530 0 0 -149z"/>
<path d="M4161 1031 c-13 -16 -21 -45 -17 -65 9 -51 143 -51 152 0 15 78 -85
126 -135 65z"/>
</g>
</svg>
